<?xml version="1.0" encoding="UTF-8" standalone="no"?><!DOCTYPE svg PUBLIC "-//W3C//DTD SVG 1.1//EN" "http://www.w3.org/Graphics/SVG/1.1/DTD/svg11.dtd"><svg width="100%" height="100%" viewBox="0 0 300 300" version="1.1" xmlns="http://www.w3.org/2000/svg" xmlns:xlink="http://www.w3.org/1999/xlink" xml:space="preserve" xmlns:serif="http://www.serif.com/" style="fill-rule:evenodd;clip-rule:evenodd;stroke-linejoin:round;stroke-miterlimit:2;"><g><g><path d="M238.689,186.938l-34.008,0c-3.8,0 -6.879,3.083 -6.879,6.883l0,51.946l-148.575,0l0,-147.467l52.079,0c3.8,0 6.883,-3.083 6.883,-6.883l0,-34.004c0,-3.805 -3.083,-6.888 -6.883,-6.888l-57.446,0c-0.488,-0.108 -0.992,-0.179 -1.513,-0.179l-34.008,0c-3.8,0 -6.888,3.083 -6.888,6.887l0,229.555c0,3.8 3.088,6.883 6.888,6.883l34.008,0c0.45,0 0.896,-0.05 1.321,-0.133l195.021,0c3.8,0 6.883,-3.079 6.883,-6.884l0,-92.833c0,-3.8 -3.083,-6.883 -6.883,-6.883" style="fill:#f5ce0d;fill-rule:nonzero;"/></g></g><g><g><path d="M143.093,19.909l0,135.608c0,12.3 14.168,19.618 25.222,13.546l122.219,-67.882c10.899,-6.072 11.054,-20.863 0,-26.935l-122.219,-67.882c-2.646,-1.401 -5.604,-2.18 -8.563,-2.18c-8.407,0 -16.659,5.605 -16.659,15.725Z" style="fill:url(#_Linear1);fill-rule:nonzero;"/></g></g><defs><linearGradient id="_Linear1" x1="0" y1="0" x2="1" y2="0" gradientUnits="userSpaceOnUse" gradientTransform="matrix(155.693,0,0,-155.693,143.093,87.7483)"><stop offset="0" style="stop-color:#14a5df;stop-opacity:1"/><stop offset="1" style="stop-color:#1d90cb;stop-opacity:1"/></linearGradient></defs></svg>