<?xml version="1.0" encoding="UTF-8" standalone="no"?>
<!DOCTYPE svg PUBLIC "-//W3C//DTD SVG 1.1//EN" "http://www.w3.org/Graphics/SVG/1.1/DTD/svg11.dtd">
<svg width="100%" height="100%" viewBox="0 0 1860 356" version="1.1" xmlns="http://www.w3.org/2000/svg" xmlns:xlink="http://www.w3.org/1999/xlink" xml:space="preserve" xmlns:serif="http://www.serif.com/" style="fill-rule:evenodd;clip-rule:evenodd;stroke-linejoin:round;stroke-miterlimit:2;">
    <g transform="matrix(1,0,0,1,-309.9,-513.517)">
        <g transform="matrix(4.16667,0,0,4.16667,0,0)">
            <g transform="matrix(0,42.3696,42.3696,0,104.115,150.337)">
                <path d="M0.149,0.091C0.073,0.057 0,-0.021 0,-0.161C0,-0.305 0.066,-0.383 0.139,-0.433C0.101,-0.434 0.046,-0.44 0.023,-0.443L0.023,-0.702C0.106,-0.7 0.19,-0.7 0.275,-0.7L1,-0.7L1,-0.433L0.454,-0.433C0.286,-0.433 0.219,-0.381 0.219,-0.271C0.219,-0.155 0.301,-0.13 0.402,-0.13L1,-0.13L1,0.135L0.441,0.135C0.291,0.135 0.217,0.18 0.217,0.295C0.217,0.406 0.303,0.438 0.392,0.438L1,0.438L1,0.702L0.359,0.702C0.105,0.702 0,0.563 0,0.392C0,0.233 0.069,0.148 0.149,0.091Z" style="fill:url(#_Linear1);fill-rule:nonzero;"/>
            </g>
        </g>
        <g transform="matrix(4.16667,0,0,4.16667,0,0)">
            <g transform="matrix(0,43.3296,43.3296,0,159.221,150.337)">
                <path d="M0.514,-0.45C0.765,-0.45 1,-0.314 1,0.001C1,0.301 0.808,0.406 0.691,0.44L0.691,0.175C0.749,0.15 0.793,0.118 0.793,0.008C0.793,-0.124 0.676,-0.184 0.557,-0.184L0.557,0.447C0.529,0.45 0.508,0.45 0.476,0.45C0.237,0.45 0,0.339 0,0.01C0,-0.296 0.214,-0.45 0.514,-0.45ZM0.189,0.01C0.189,0.139 0.283,0.183 0.394,0.185L0.394,-0.178C0.277,-0.168 0.189,-0.117 0.189,0.01Z" style="fill:url(#_Linear2);fill-rule:nonzero;"/>
            </g>
        </g>
        <g transform="matrix(4.16667,0,0,4.16667,0,0)">
            <g transform="matrix(0,59.3579,59.3579,0,203.113,134.309)">
                <path d="M0,0.146L0.337,0.146C0.305,0.131 0.27,0.077 0.27,-0.024C0.27,-0.221 0.426,-0.341 0.641,-0.341C0.858,-0.341 1,-0.228 1,-0.052C1,0.052 0.966,0.112 0.911,0.146C0.927,0.147 0.963,0.151 0.984,0.155L0.984,0.341C0.92,0.339 0.856,0.339 0.792,0.339L0,0.339L0,0.146ZM0.636,-0.142C0.504,-0.142 0.425,-0.091 0.425,0.01C0.425,0.137 0.515,0.153 0.634,0.153C0.735,0.153 0.845,0.138 0.845,0.005C0.845,-0.089 0.772,-0.142 0.636,-0.142Z" style="fill:url(#_Linear3);fill-rule:nonzero;"/>
            </g>
        </g>
        <g transform="matrix(4.16667,0,0,4.16667,0,0)">
            <g transform="matrix(0,58.229,58.229,0,251.335,150.337)">
                <path d="M0.105,-0.146C0.079,-0.146 0.035,-0.15 0.016,-0.153L0.016,-0.344C0.074,-0.342 0.13,-0.342 0.188,-0.342L1,-0.342L1,-0.146L0.665,-0.146C0.706,-0.119 0.744,-0.067 0.744,0.033C0.744,0.206 0.605,0.344 0.354,0.344C0.134,0.344 0,0.22 0,0.06C0,-0.052 0.053,-0.116 0.105,-0.146ZM0.373,-0.154C0.23,-0.154 0.158,-0.115 0.158,-0.003C0.158,0.091 0.231,0.144 0.362,0.144C0.507,0.144 0.588,0.093 0.588,-0.011C0.588,-0.118 0.509,-0.154 0.373,-0.154Z" style="fill:url(#_Linear4);fill-rule:nonzero;"/>
            </g>
        </g>
        <g transform="matrix(4.16667,0,0,4.16667,0,0)">
            <g transform="matrix(0,43.3296,43.3296,0,295.782,150.337)">
                <path d="M0.503,-0.473C0.789,-0.473 1,-0.3 1,-0.003C1,0.3 0.787,0.473 0.498,0.473C0.199,0.473 0,0.291 0,0.009C0,-0.294 0.208,-0.473 0.503,-0.473ZM0.5,-0.204C0.298,-0.204 0.207,-0.124 0.207,-0.001C0.207,0.131 0.302,0.204 0.502,0.204C0.684,0.204 0.793,0.132 0.793,0.003C0.793,-0.125 0.684,-0.204 0.5,-0.204Z" style="fill:url(#_Linear5);fill-rule:nonzero;"/>
            </g>
        </g>
        <g transform="matrix(4.16667,0,0,4.16667,0,0)">
            <g transform="matrix(0,42.3696,42.3696,0,334.465,150.337)">
                <path d="M0.194,-0.021C0.142,-0.021 0.045,-0.024 0.023,-0.028L0.023,-0.293C0.104,-0.291 0.191,-0.291 0.288,-0.291L1,-0.291L1,-0.021L0.574,-0.021C0.306,-0.021 0.253,0.097 0.258,0.293L0,0.293C0.001,0.127 0.083,0.023 0.194,-0.021Z" style="fill:url(#_Linear6);fill-rule:nonzero;"/>
            </g>
        </g>
        <g transform="matrix(4.16667,0,0,4.16667,0,0)">
            <g transform="matrix(0,53.1821,53.1821,0,362.199,140.084)">
                <path d="M0,-0.124L0.211,-0.124L0.211,-0.244L0.373,-0.244L0.373,-0.124L0.783,-0.124C0.919,-0.124 1,-0.074 1,0.078C1,0.122 1,0.18 0.985,0.223L0.837,0.223C0.839,0.207 0.839,0.186 0.839,0.174C0.839,0.11 0.816,0.092 0.757,0.092L0.373,0.092L0.373,0.244L0.211,0.244L0.211,0.092L0,0.092L0,-0.124Z" style="fill:url(#_Linear7);fill-rule:nonzero;"/>
            </g>
        </g>
        <g transform="matrix(4.16667,0,0,4.16667,0,0)">
            <g transform="matrix(0,43.3302,43.3302,0,396.025,150.336)">
                <path d="M0.306,-0.387L0.306,-0.135C0.236,-0.123 0.189,-0.099 0.189,0.013C0.189,0.136 0.256,0.16 0.324,0.16L0.382,0.16L0.382,0.024C0.382,-0.256 0.483,-0.431 0.7,-0.431C0.849,-0.431 1,-0.334 1,-0.104C1,0.065 0.938,0.13 0.884,0.165C0.909,0.166 0.959,0.171 0.978,0.178L0.978,0.431C0.955,0.426 0.822,0.418 0.731,0.418L0.329,0.418C0.102,0.418 0.002,0.279 0,0.023C0,0.021 0,0.02 0,0.018C0,-0.269 0.137,-0.373 0.306,-0.387ZM0.684,-0.166C0.591,-0.166 0.543,-0.107 0.543,0.053L0.543,0.16L0.568,0.16C0.694,0.16 0.811,0.14 0.811,-0.028C0.811,-0.123 0.753,-0.166 0.684,-0.166Z" style="fill:url(#_Linear8);fill-rule:nonzero;"/>
            </g>
        </g>
        <g transform="matrix(4.16667,0,0,4.16667,0,0)">
            <g transform="matrix(58.3979,0,0,-58.3979,399.061,163.508)">
                <rect x="0.402" y="-0.5" width="0.196" height="1" style="fill:url(#_Linear9);"/>
            </g>
        </g>
        <g transform="matrix(4.16667,0,0,4.16667,0,0)">
            <g transform="matrix(1,0,0,1,506.24,159.924)">
                <path d="M0,7.166L-8.162,7.166C-9.074,7.166 -9.813,7.906 -9.813,8.818L-9.813,21.285L-45.471,21.285L-45.471,-14.107L-32.972,-14.107C-32.06,-14.107 -31.32,-14.847 -31.32,-15.759L-31.32,-23.92C-31.32,-24.833 -32.06,-25.573 -32.972,-25.573L-46.759,-25.573C-46.876,-25.599 -46.997,-25.616 -47.122,-25.616L-55.284,-25.616C-56.196,-25.616 -56.937,-24.876 -56.937,-23.963L-56.937,31.13C-56.937,32.042 -56.196,32.782 -55.284,32.782L-47.122,32.782C-47.014,32.782 -46.907,32.77 -46.805,32.75L0,32.75C0.912,32.75 1.652,32.011 1.652,31.098L1.652,8.818C1.652,7.906 0.912,7.166 0,7.166" style="fill:rgb(245,206,13);fill-rule:nonzero;"/>
            </g>
        </g>
        <g transform="matrix(4.16667,0,0,4.16667,0,0)">
            <g transform="matrix(37.3662,0,0,-37.3662,483.297,144.229)">
                <path d="M0,0.461L0,-0.41C0,-0.489 0.091,-0.536 0.162,-0.497L0.947,-0.061C1.017,-0.022 1.018,0.073 0.947,0.112L0.162,0.548C0.145,0.557 0.126,0.562 0.107,0.562C0.053,0.562 0,0.526 0,0.461Z" style="fill:url(#_Linear10);fill-rule:nonzero;"/>
            </g>
        </g>
    </g>
    <defs>
        <linearGradient id="_Linear1" x1="0" y1="0" x2="1" y2="0" gradientUnits="userSpaceOnUse" gradientTransform="matrix(1,0,0,-1,0,6.74068e-06)"><stop offset="0" style="stop-color:rgb(40,52,127);stop-opacity:1"/><stop offset="1" style="stop-color:rgb(34,41,89);stop-opacity:1"/></linearGradient>
        <linearGradient id="_Linear2" x1="0" y1="0" x2="1" y2="0" gradientUnits="userSpaceOnUse" gradientTransform="matrix(1,0,0,-1,0,-6.66058e-06)"><stop offset="0" style="stop-color:rgb(40,52,127);stop-opacity:1"/><stop offset="1" style="stop-color:rgb(34,41,89);stop-opacity:1"/></linearGradient>
        <linearGradient id="_Linear3" x1="0" y1="0" x2="1" y2="0" gradientUnits="userSpaceOnUse" gradientTransform="matrix(1,0,0,-1,0,-9.66678e-06)"><stop offset="0" style="stop-color:rgb(40,52,127);stop-opacity:1"/><stop offset="1" style="stop-color:rgb(34,41,89);stop-opacity:1"/></linearGradient>
        <linearGradient id="_Linear4" x1="0" y1="0" x2="1" y2="0" gradientUnits="userSpaceOnUse" gradientTransform="matrix(1,0,0,-1,0,-4.48574e-06)"><stop offset="0" style="stop-color:rgb(20,165,223);stop-opacity:1"/><stop offset="1" style="stop-color:rgb(29,144,203);stop-opacity:1"/></linearGradient>
        <linearGradient id="_Linear5" x1="0" y1="0" x2="1" y2="0" gradientUnits="userSpaceOnUse" gradientTransform="matrix(1,0,0,-1,0,1.75031e-05)"><stop offset="0" style="stop-color:rgb(20,165,223);stop-opacity:1"/><stop offset="1" style="stop-color:rgb(29,144,203);stop-opacity:1"/></linearGradient>
        <linearGradient id="_Linear6" x1="0" y1="0" x2="1" y2="0" gradientUnits="userSpaceOnUse" gradientTransform="matrix(1,0,0,-1,0,1.08002e-05)"><stop offset="0" style="stop-color:rgb(20,165,223);stop-opacity:1"/><stop offset="1" style="stop-color:rgb(29,144,203);stop-opacity:1"/></linearGradient>
        <linearGradient id="_Linear7" x1="0" y1="0" x2="1" y2="0" gradientUnits="userSpaceOnUse" gradientTransform="matrix(1,0,0,-1,0,2.22631e-05)"><stop offset="0" style="stop-color:rgb(20,165,223);stop-opacity:1"/><stop offset="1" style="stop-color:rgb(29,144,203);stop-opacity:1"/></linearGradient>
        <linearGradient id="_Linear8" x1="0" y1="0" x2="1" y2="0" gradientUnits="userSpaceOnUse" gradientTransform="matrix(1,0,0,-1,0,1.32656e-05)"><stop offset="0" style="stop-color:rgb(20,165,223);stop-opacity:1"/><stop offset="1" style="stop-color:rgb(29,144,203);stop-opacity:1"/></linearGradient>
        <linearGradient id="_Linear9" x1="0" y1="0" x2="1" y2="0" gradientUnits="userSpaceOnUse" gradientTransform="matrix(0,-1,-1,-0,0.50001,0.50001)"><stop offset="0" style="stop-color:rgb(20,165,223);stop-opacity:1"/><stop offset="1" style="stop-color:rgb(29,144,203);stop-opacity:1"/></linearGradient>
        <linearGradient id="_Linear10" x1="0" y1="0" x2="1" y2="0" gradientUnits="userSpaceOnUse" gradientTransform="matrix(1,0,0,-1,0,0.0252745)"><stop offset="0" style="stop-color:rgb(20,165,223);stop-opacity:1"/><stop offset="1" style="stop-color:rgb(29,144,203);stop-opacity:1"/></linearGradient>
    </defs>
</svg>
